<?xml version="1.0" encoding="utf-8"?>
<!-- Generator: Adobe Illustrator 26.5.0, SVG Export Plug-In . SVG Version: 6.00 Build 0)  -->
<svg version="1.1" id="Layer_1" xmlns="http://www.w3.org/2000/svg" xmlns:xlink="http://www.w3.org/1999/xlink" x="0px" y="0px"
	 viewBox="0 0 1080 1080" style="enable-background:new 0 0 1080 1080;" xml:space="preserve">
<style type="text/css">
	.st0{fill:#7F8FA4;}
</style>
<path id="megaphone_1_" class="st0" d="M1002.35,706.26L899.4,603.52l63.71-63.71l102.73,102.73L1002.35,706.26z M1065.84,257.25
	l-63.49-63.49L901.33,294.79l63.49,63.49L1065.84,257.25z M1079,405.11H944.3v89.8H1079V405.11z M377.2,764.31H124.37l139.69,314.3
	h62.86c68.24-0.04,123.54-55.39,123.5-123.64c-0.01-17.24-3.63-34.28-10.62-50.04L377.2,764.31z M809.6,1v898.01h-89.8
	c-0.15-123.93-100.58-224.35-224.5-224.5H136.09c-74.39,0-134.7-60.31-134.7-134.7v-179.6c0-74.39,60.31-134.7,134.7-134.7h359.21
	C619.22,225.35,719.65,124.93,719.79,1H809.6z"/>
</svg>
