<?xml version="1.0" encoding="utf-8"?>
<!-- Generator: Adobe Illustrator 26.5.0, SVG Export Plug-In . SVG Version: 6.00 Build 0)  -->
<svg version="1.1" id="Layer_1" xmlns="http://www.w3.org/2000/svg" xmlns:xlink="http://www.w3.org/1999/xlink" x="0px" y="0px"
	 viewBox="0 0 1080 1080" style="enable-background:new 0 0 1080 1080;" xml:space="preserve">
<style type="text/css">
	.st0{fill:#7F8FA4;}
</style>
<path id="hourglass-end" class="st0" d="M703.08,854.98H377.23c35.51-78.02,92.12-144.58,163.43-192.15
	C611.87,710.24,668.19,776.86,703.08,854.98z M944.99,944.99V1080H135.01V944.99C140.46,787.57,213.26,640.07,334.9,540
	C213.26,439.93,140.46,292.43,135.01,135.01C135.01,60.45,195.46,0,270.03,0h539.95c74.57,0,135.01,60.45,135.01,135.01
	c-5.37,157.27-77.87,304.7-199.13,404.99C867.12,640.29,939.61,787.72,944.99,944.99z M805.93,893.01
	c-25.28-160.45-161.81-271.04-240.7-322.61l-24.73-16.13l-24.63,16.18c-79.44,52.03-216.27,163.03-241.76,322.41l-8.34,52.08h548.34
	L805.93,893.01z"/>
</svg>
