<?xml version="1.0" encoding="utf-8"?>
<!-- Generator: Adobe Illustrator 26.5.0, SVG Export Plug-In . SVG Version: 6.00 Build 0)  -->
<svg version="1.1" id="Layer_1" xmlns="http://www.w3.org/2000/svg" xmlns:xlink="http://www.w3.org/1999/xlink" x="0px" y="0px"
	 viewBox="0 0 1080 1080" style="enable-background:new 0 0 1080 1080;" xml:space="preserve">
<style type="text/css">
	.st0{fill:#7F8FA4;}
</style>
<path id="coins" class="st0" d="M404.99,179.99C404.99,80.58,556.11,0,742.49,0S1080,80.58,1080,179.99S928.88,359.97,742.49,359.97
	S404.99,279.4,404.99,179.99z M742.49,450.17c-43.75,0.08-87.38-4.68-130.1-14.17c-81.62-53.03-177.62-79.57-274.89-75.99
	C151.12,360.01,0,440.59,0,540s151.12,179.99,337.51,179.99S675.01,639.41,675.01,540c0-1.32-0.33-2.56-0.37-3.88h0.37v93.88
	c0,99.41-151.12,179.99-337.51,179.99S0,729.4,0,629.99v89.99c0,99.41,151.12,179.99,337.51,179.99s337.51-80.58,337.51-179.99
	v89.99c0,99.41-151.12,179.99-337.51,179.99S0,909.43,0,810.02v89.99C0,999.46,151.12,1080,337.51,1080s337.51-80.58,337.51-179.99
	v-3.8c22.41,2.4,44.94,3.6,67.48,3.59c186.39,0,337.51-80.58,337.51-179.99v-89.83c0,95.36-139.14,173.21-315,179.41v-89.99
	c175.86-6.2,315-84,315-179.41v-89.83c0,95.36-139.14,173.21-315,179.41v-90.16c175.86-6.2,315-84,315-179.41v-89.99
	C1080,369.43,928.92,450.17,742.49,450.17z"/>
</svg>
