<?xml version="1.0" encoding="utf-8"?>
<!-- Generator: Adobe Illustrator 26.5.0, SVG Export Plug-In . SVG Version: 6.00 Build 0)  -->
<svg version="1.1" id="Layer_1" xmlns="http://www.w3.org/2000/svg" xmlns:xlink="http://www.w3.org/1999/xlink" x="0px" y="0px"
	 viewBox="0 0 1080 1080" style="enable-background:new 0 0 1080 1080;" xml:space="preserve">
<style type="text/css">
	.st0{fill:#7F8FA4;}
</style>
<g id="envelope" transform="translate(-4.886 -1.253)">
	<path id="Path_35810" class="st0" d="M1079.58,252.41L703.03,629.04c-87.43,87.28-229.03,87.28-316.47,0L10.23,252.41
		c-0.63,7.06-2.06,13.45-2.06,20.48v536.73c0.14,123.45,100.18,223.49,223.63,223.63h626.16
		c123.45-0.14,223.49-100.18,223.63-223.63V272.89C1081.6,265.86,1080.3,259.47,1079.58,252.41z"/>
	<path id="Path_35811" class="st0" d="M639.8,565.68l408.54-408.58C1008.12,90.32,935.92,49.43,857.97,49.25H231.8
		C153.85,49.43,81.66,90.32,41.43,157.1l408.54,408.58C502.46,617.93,587.31,617.93,639.8,565.68z"/>
</g>
</svg>
