<?xml version="1.0" encoding="utf-8"?>
<!-- Generator: Adobe Illustrator 26.5.0, SVG Export Plug-In . SVG Version: 6.00 Build 0)  -->
<svg version="1.1" id="Layer_1" xmlns="http://www.w3.org/2000/svg" xmlns:xlink="http://www.w3.org/1999/xlink" x="0px" y="0px"
	 viewBox="0 0 1080 1080" style="enable-background:new 0 0 1080 1080;" xml:space="preserve">
<style type="text/css">
	.st0{fill:#7F8FA4;}
</style>
<path id="clipboard-list" class="st0" d="M721.56,89.99h-7.68C694.75,36.08,643.76,0.04,586.55,0h-89.99
	c-57.21,0.04-108.2,36.08-127.33,89.99h-7.68c-124.21,0.14-224.86,100.8-225,225v540c0.14,124.21,100.8,224.86,225,225h360.01
	c124.21-0.14,224.86-100.8,225-225V315C946.42,190.79,845.77,90.14,721.56,89.99z M316.53,810.02c-24.86,0-45.02-20.16-45.02-45.02
	s20.16-45.02,45.02-45.02c24.86,0,45.02,20.16,45.02,45.02l0,0C361.55,789.87,341.39,810.02,316.53,810.02z M766.54,810.02H496.51
	c-24.85,0.77-45.62-18.74-46.4-43.6c-0.77-24.85,18.74-45.62,43.6-46.4c0.93-0.03,1.87-0.03,2.8,0h270.02
	c24.85-0.77,45.62,18.74,46.4,43.6c0.77,24.85-18.74,45.62-43.6,46.4C768.41,810.05,767.47,810.05,766.54,810.02z M316.53,629.99
	c-24.86,0-45.02-20.16-45.02-45.02c0-24.86,20.16-45.02,45.02-45.02c24.86,0,45.02,20.16,45.02,45.02l0,0
	C361.55,609.84,341.39,629.99,316.53,629.99z M766.54,629.99H496.51c-24.85,0.77-45.62-18.74-46.4-43.6
	c-0.77-24.85,18.74-45.62,43.6-46.4c0.93-0.03,1.87-0.03,2.8,0h270.02c24.85-0.77,45.62,18.74,46.4,43.6
	c0.77,24.85-18.74,45.62-43.6,46.4C768.41,630.02,767.47,630.02,766.54,629.99z M316.53,450.01c-24.86,0-45.02-20.16-45.02-45.02
	c0-24.86,20.16-45.02,45.02-45.02c24.86,0,45.02,20.16,45.02,45.02l0,0C361.55,429.85,341.39,450.01,316.53,450.01z M766.54,450.01
	H496.51c-24.85,0.77-45.62-18.74-46.4-43.6c-0.77-24.85,18.74-45.62,43.6-46.4c0.93-0.03,1.87-0.03,2.8,0h270.02
	c24.85-0.77,45.62,18.74,46.4,43.6c0.77,24.85-18.74,45.62-43.6,46.4C768.41,450.04,767.47,450.04,766.54,450.01z"/>
</svg>
