<?xml version="1.0" encoding="utf-8"?>
<!-- Generator: Adobe Illustrator 26.5.0, SVG Export Plug-In . SVG Version: 6.00 Build 0)  -->
<svg version="1.1" id="Layer_1" xmlns="http://www.w3.org/2000/svg" xmlns:xlink="http://www.w3.org/1999/xlink" x="0px" y="0px"
	 viewBox="0 0 1080 1080" style="enable-background:new 0 0 1080 1080;" xml:space="preserve">
<style type="text/css">
	.st0{fill:#4BCFDA;}
</style>
<g>
	<path class="st0" d="M614.49,619.85l-42.38-30.67c-19.35-14.13-45.61-14.13-64.96,0l-42.38,30.78
		c-19.46,14.06-27.58,39.1-20.07,61.91l16.18,49.81c7.4,22.76,28.63,38.14,52.55,38.09h52.4c23.95,0,45.18-15.42,52.58-38.2
		l16.16-49.81C642.08,658.95,633.95,633.91,614.49,619.85z M592.45,668.1l-16.16,49.81l0.07,0c-1.48,4.56-5.73,7.65-10.52,7.65
		h-52.4c-4.79-0.01-9.03-3.09-10.5-7.65l-16.18-49.79c-1.49-4.56,0.14-9.57,4.02-12.38l42.36-30.78c3.88-2.82,9.12-2.82,13,0
		l42.32,30.78C592.31,658.56,593.93,663.54,592.45,668.1z"/>
	<path class="st0" d="M840.11,347.24c-3.37-4.16-7.71-7.43-12.65-9.5c-16.51-6.94-35.53,0.82-42.47,17.33
		c-14.68,27.43-32.65,52.97-53.5,76.05C739.94,238.78,665.72,92.86,494.93,0h-21.07c-13.23,6.45-21.82,19.67-22.34,34.38
		c-10.46,108.73-69.01,207.08-159.6,268.11c-95.79,65.93-159.7,168.87-176.3,283.97c-35.13,228.57,117.48,443.77,344.8,486.21
		c232.58,43.42,456.33-109.92,499.76-342.5C988.68,590.37,943.33,445.75,840.11,347.24z M619.82,428.48l-67.19,49.7
		c-7.74,5.61-18.21,5.61-25.96,0l-67.81-49.48C511.18,411.89,567.45,411.81,619.82,428.48z M335.23,512.4L359.68,592
		c2.83,9.17-0.58,19.12-8.45,24.63l-76.39,54.17C277.02,612.8,298.24,557.13,335.23,512.4z M309.96,813.68l91.51,0.15
		c9.56,0.02,18.02,6.17,20.98,15.26l32.7,103.56C393.92,911.92,342.32,869.64,309.96,813.68z M622.93,933.09l33.72-103.91
		c2.93-9.11,11.39-15.3,20.96-15.34l91.58-0.13C736.63,870.01,684.62,912.47,622.93,933.09z M789.59,769.29l-112.03,0.22
		c-28.74,0.03-54.17,18.61-62.92,45.99l-41.85,128.94c-11,1.44-22.07,2.18-33.16,2.21c-11.51-0.08-23-0.92-34.4-2.5l-40.59-128.48
		c-8.74-27.42-34.21-46.04-62.99-46.05l-111.98-0.2c-5.33-15.13-9.27-30.72-11.76-46.56l98.87-70.26
		c23.51-16.5,33.68-46.3,25.16-73.73l-31.31-101.86c12.8-10.59,26.56-19.95,41.1-27.97l88.9,64.87c23.28,16.97,54.85,16.97,78.13,0
		l88.15-65.13c14.77,8.1,28.74,17.6,41.72,28.34l-31.31,101.7c-8.55,27.43,1.59,57.25,25.09,73.78l98.94,70.26
		C798.85,738.66,794.92,754.2,789.59,769.29z M727.86,616.49l0.11,0c-7.84-5.52-11.22-15.47-8.38-24.63l24.32-79.46
		c36.99,44.73,58.21,100.39,60.38,158.39L727.86,616.49z"/>
</g>
</svg>
