<?xml version="1.0" encoding="utf-8"?>
<!-- Generator: Adobe Illustrator 26.5.0, SVG Export Plug-In . SVG Version: 6.00 Build 0)  -->
<svg version="1.1" id="Layer_1" xmlns="http://www.w3.org/2000/svg" xmlns:xlink="http://www.w3.org/1999/xlink" x="0px" y="0px"
	 viewBox="0 0 1080 1080" style="enable-background:new 0 0 1080 1080;" xml:space="preserve">
<style type="text/css">
	.st0{fill:#7F8FA4;}
</style>
<g id="Menu" transform="translate(-7.416 -5.765)">
	<g id="Group_49" transform="translate(3 3)">
		<path id="Path_35758" class="st0" d="M315.99,12.11c-53.18-12.47-108.52-12.47-161.7,0C84.63,28.45,30.23,82.85,13.89,152.52
			c-12.47,53.18-12.47,108.52,0,161.7c16.34,69.67,70.73,124.06,140.4,140.4c53.18,12.47,108.52,12.47,161.7,0
			c69.67-16.34,124.06-70.73,140.4-140.4c12.47-53.18,12.47-108.52,0-161.7C440.05,82.85,385.66,28.45,315.99,12.11z"/>
		<path id="Path_35759" class="st0" d="M315.99,630.92c-53.18-12.47-108.52-12.47-161.7,0c-69.67,16.34-124.06,70.73-140.4,140.4
			c-12.47,53.18-12.47,108.52,0,161.7c16.34,69.67,70.73,124.06,140.4,140.4c53.18,12.47,108.52,12.47,161.7,0
			c69.67-16.34,124.06-70.73,140.4-140.4c12.47-53.18,12.47-108.52,0-161.7C440.05,701.65,385.66,647.25,315.99,630.92z"/>
		<path id="Path_35760" class="st0" d="M934.79,12.11c-53.18-12.47-108.52-12.47-161.7,0c-69.67,16.34-124.06,70.73-140.4,140.4
			c-12.47,53.18-12.47,108.52,0,161.7c16.34,69.67,70.73,124.06,140.4,140.4c53.18,12.47,108.52,12.47,161.7,0
			c69.67-16.34,124.06-70.73,140.4-140.4c12.47-53.18,12.47-108.52,0-161.7C1058.86,82.85,1004.46,28.45,934.79,12.11z"/>
		<path id="Path_35761" class="st0" d="M934.79,630.92c-53.18-12.47-108.52-12.47-161.7,0c-69.67,16.34-124.06,70.73-140.4,140.4
			c-12.47,53.18-12.47,108.52,0,161.7c16.34,69.67,70.73,124.06,140.4,140.4c53.18,12.47,108.52,12.47,161.7,0
			c69.67-16.34,124.06-70.73,140.4-140.4c12.47-53.18,12.47-108.52,0-161.7C1058.86,701.65,1004.46,647.25,934.79,630.92z"/>
	</g>
</g>
</svg>
