<?xml version="1.0" encoding="utf-8"?>
<!-- Generator: Adobe Illustrator 26.5.0, SVG Export Plug-In . SVG Version: 6.00 Build 0)  -->
<svg version="1.1" id="Layer_1" xmlns="http://www.w3.org/2000/svg" xmlns:xlink="http://www.w3.org/1999/xlink" x="0px" y="0px"
	 viewBox="0 0 1080 1080" style="enable-background:new 0 0 1080 1080;" xml:space="preserve">
<style type="text/css">
	.st0{fill:#7F8FA4;}
</style>
<path id="chart-connected" class="st0" d="M1080,539.28c0.01-98.22-79.05-178.13-177.26-179.19
	c-39.28-78.22-102.81-141.64-181.11-180.76C716.68,80.5,632.54,4.38,533.7,9.33c-91.92,4.6-165.41,78.09-170.01,170.01
	c-78.5,39.09-142.2,102.57-181.56,180.94C83.31,358.52,1.78,437.22,0.03,536.04S76.97,716.4,175.8,718.15
	c1.87,0.03,3.75,0.04,5.62,0.01c39.2,79.03,103.12,143.11,182.06,182.5c4.95,98.84,89.08,174.95,187.92,170.01
	c91.92-4.6,165.41-78.09,170.01-170.01c78.94-39.39,142.86-103.47,182.06-182.5C1001.26,716.72,1079.84,637.1,1080,539.28z
	 M698.24,811.52C651.14,725.47,543.2,693.9,457.15,741c-29.76,16.29-54.23,40.76-70.52,70.52c-48.26-27.92-88.29-68.1-116.02-116.47
	c86.21-46.86,118.12-154.73,71.26-240.94c-16.25-29.9-40.75-54.51-70.59-70.89c27.72-47.8,67.49-87.5,115.35-115.13
	c47.1,86.05,155.04,117.62,241.09,70.52c29.76-16.29,54.23-40.76,70.52-70.52c47.86,27.63,87.63,67.32,115.35,115.13
	c-85.96,47.32-117.28,155.36-69.97,241.32c16.35,29.71,40.86,54.11,70.64,70.34c-27.73,48.37-67.76,88.55-116.02,116.47
	L698.24,811.52z"/>
</svg>
