<?xml version="1.0" encoding="utf-8"?>
<!-- Generator: Adobe Illustrator 26.5.0, SVG Export Plug-In . SVG Version: 6.00 Build 0)  -->
<svg version="1.1" id="Layer_1" xmlns="http://www.w3.org/2000/svg" xmlns:xlink="http://www.w3.org/1999/xlink" x="0px" y="0px"
	 viewBox="0 0 1080 1080" style="enable-background:new 0 0 1080 1080;" xml:space="preserve">
<style type="text/css">
	.st0{fill:#7F8FA4;}
</style>
<g id="Group_67857" transform="translate(0 0.001)">
	<path id="Path_35794" class="st0" d="M0,546.01c6.32-24.77,25.32-44.31,49.9-51.33c48.72-10.43,96.67,20.61,107.1,69.33
		c10.43,48.72-20.61,96.67-69.33,107.1c-7.22,1.55-14.61,2.2-21.99,1.95c-9.12,0-18.28-0.55-27.36,0
		c-16.27,2.24-32.01-6.78-38.3-21.95L0,546.01z"/>
	<path id="Path_35795" class="st0" d="M899.15,479.36c-12.09,14.07-21.98,29.88-29.33,46.9c-30.94,77.97,7.18,166.26,85.15,197.2
		c12.75,5.06,26.13,8.37,39.77,9.84c17.21,1.58,34.35,1.38,51.52,1.34c7.7,0,10.46,2.57,10.42,10.34
		c-0.2,67.43,0,134.87-0.24,202.26c0.18,17.09-13.53,31.1-30.63,31.27c-0.32,0-0.64,0-0.96,0c-24.6,0.32-49.15-0.28-73.75,0.28
		c-9.28,0.2-12.08-2.84-11.84-12.04c0.36-49.51,0-99.02,0-148.53c0-24.32-12.32-39.92-31.19-39.48
		c-18.87,0.43-30.52,15.52-30.56,39.2c0,49.15-0.32,98.35,0.24,147.5c0,10.78-3.24,13.62-13.78,13.58
		c-93.41-0.37-186.85-0.37-280.32,0c-10.78,0-13.58-3.28-13.54-13.78c0.34-102.2,0.34-204.4,0-306.57
		c0.53-41.18-7.01-82.06-22.19-120.34c-18.47-45.77-47.71-86.4-85.24-118.44c-3.36-2.88-7.66-4.94-9.51-9.59
		c2.88-3.24,6.59-1.89,9.87-1.89c52.31,0,104.67,0,156.98-0.2c6.99-0.3,13.74,2.61,18.32,7.9c45.03,48.62,108.32,76.22,174.59,76.12
		c24.99,0.39,49.87-3.5,73.55-11.49c3.59-1.18,7.26-2.17,10.86-3.24l1.78,2.01"/>
	<path id="Path_35796" class="st0" d="M180.27,479.76c16.19,1.62,31.03,6.63,46.59,9.04c56.3,9.64,114.18-1.59,162.78-31.59
		c7.38-6.11,18.22-5.47,24.83,1.46c59.57,45.21,94.43,115.79,94.12,190.58c0.63,105.02,0,210.08,0,315.1
		c0,14.45,0,14.49-14.49,14.49H216.04c-14.33,0-14.37,0-14.37-14.61c0-48.83,0-97.65,0-146.48c0-23.69-12.16-38.89-30.8-38.97
		s-30.91,15.32-30.91,38.81c0,49.51,0,99.06,0,148.61c0,9.28-2.29,13.11-12.32,12.83c-23.69-0.63-47.77,0-71.66-0.28
		c-17.41,1.13-32.44-12.06-33.57-29.46c-0.09-1.43-0.09-2.86,0.01-4.29c0-66.05,0-132.07-0.2-198.12c0-9.12,2.57-12.36,11.84-12.12
		c30.52,2.99,61.33-0.81,90.21-11.13c77.83-31.28,115.57-119.74,84.29-197.57c-6.16-15.34-14.79-29.56-25.54-42.12
		c-1.07-1.3-1.97-2.76-2.92-3.95"/>
	<path id="Path_35797" class="st0" d="M445.47,251.44c-0.33,99.35-81.13,179.63-180.49,179.3c-99.35-0.33-179.63-81.13-179.3-180.49
		s81.13-179.63,180.49-179.3C365.52,71.27,445.8,152.08,445.47,251.44"/>
	<path id="Path_35798" class="st0" d="M813.71,430.76c-98.84,0.57-179.43-79.1-179.99-177.94c0-0.62,0-1.24,0-1.86
		c-0.07-99.35,80.42-179.95,179.78-180.02c99.35-0.07,179.95,80.42,180.02,179.78c0.61,98.82-79,179.42-177.82,180.03
		c-0.65,0-1.29,0-1.94,0"/>
	<path id="Path_35799" class="st0" d="M1079.89,598.6c0,14.02,0.2,28.07,0,42.09c0.47,17.44-13.29,31.95-30.72,32.42
		c-0.66,0.02-1.31,0.01-1.97-0.01c-12.99,0.2-25.98,0-38.93,0c-49.92-1.32-89.31-42.86-87.99-92.77
		c1.32-49.92,42.86-89.31,92.77-87.99c2.68,0.07,5.35,0.26,8.01,0.57c32.89,4.84,57.64,32.47,58.83,65.7
		C1080.13,571.95,1079.89,585.25,1079.89,598.6"/>
</g>
</svg>
