<?xml version="1.0" encoding="utf-8"?>
<!-- Generator: Adobe Illustrator 26.5.0, SVG Export Plug-In . SVG Version: 6.00 Build 0)  -->
<svg version="1.1" id="Layer_1" xmlns="http://www.w3.org/2000/svg" xmlns:xlink="http://www.w3.org/1999/xlink" x="0px" y="0px"
	 viewBox="0 0 1080 1080" style="enable-background:new 0 0 1080 1080;" xml:space="preserve">
<style type="text/css">
	.st0{fill:#7F8FA4;}
</style>
<path id="world_1_" class="st0" d="M540.15,0.19C242.02,0.22,0.36,241.91,0.38,540.04s241.72,539.79,539.85,539.77
	C838.34,1079.78,1080,838.11,1080,540C1080,241.87,838.32,0.19,540.19,0.19C540.18,0.19,540.16,0.19,540.15,0.19z M562.66,943.76
	v-57.72c0-104.1-84.39-188.48-188.48-188.48h0h-0.45c-37.51,0-73.49-14.9-100.01-41.43L136.39,518.6
	c11.25-222.84,201.03-394.37,423.87-383.12c73.48,3.71,144.56,27.42,205.56,68.57c-11.96,8.77-26.4,13.49-41.23,13.48h-64.35
	c-38.71,0-70.08,31.38-70.08,70.08v0v46.91c0,38.71-31.38,70.08-70.08,70.08l0,0c-38.71,0-70.08,31.38-70.08,70.08v46.58
	c0,38.71,31.38,70.08,70.08,70.08h186.96c38.71,0,70.08,31.38,70.08,70.08v0v68.39c0.05,18.57,7.46,36.36,20.61,49.47l37.47,37.47
	C764.12,892.66,666.48,938.15,562.66,943.76z"/>
</svg>
