<?xml version="1.0" encoding="utf-8"?>
<!-- Generator: Adobe Illustrator 26.5.0, SVG Export Plug-In . SVG Version: 6.00 Build 0)  -->
<svg version="1.1" id="Layer_1" xmlns="http://www.w3.org/2000/svg" xmlns:xlink="http://www.w3.org/1999/xlink" x="0px" y="0px"
	 viewBox="0 0 1080 1080" style="enable-background:new 0 0 1080 1080;" xml:space="preserve">
<style type="text/css">
	.st0{fill:#7F8FA4;}
</style>
<g id="logout">
	<path class="st0" d="M1041.79,626.04l-90.39,90.57c-12.21,12.21-28.23,18.31-44.25,18.31c-16.02,0-32.02-6.1-44.21-18.29
		c-24.38-24.38-24.38-64.06,0-88.44l26.71-26.71h-431.5c-34.41,0-62.4-28.01-62.4-62.42s27.99-62.42,62.4-62.42h431.5l-26.71-26.71
		c-24.38-24.38-24.38-64.06,0-88.44c24.38-24.38,64.06-24.38,88.44,0l90.41,90.47C1089.79,499.93,1089.79,578.04,1041.79,626.04z"/>
	<path class="st0" d="M648.12,266.5v-80.98c-0.04-32.34-26.39-58.69-58.77-58.73H183.56c-32.34,0.04-58.71,26.39-58.73,58.75v710.88
		c0.02,32.34,26.39,58.71,58.75,58.73h405.78c32.36-0.02,58.71-26.39,58.75-58.75v-80.78c0-34.41,27.99-62.42,62.4-62.42
		s62.42,28.01,62.42,62.42v80.8c-0.12,101.13-82.45,183.46-183.54,183.58H183.56C82.43,1079.88,0.1,997.55,0,896.46V185.52
		C0.1,84.39,82.43,2.06,183.54,1.96h405.82c101.13,0.1,183.46,82.43,183.58,183.54v81c0,34.43-28.01,62.42-62.42,62.42
		S648.12,300.93,648.12,266.5z"/>
</g>
</svg>
