<?xml version="1.0" encoding="utf-8"?>
<!-- Generator: Adobe Illustrator 26.5.0, SVG Export Plug-In . SVG Version: 6.00 Build 0)  -->
<svg version="1.1" id="Layer_1" xmlns="http://www.w3.org/2000/svg" xmlns:xlink="http://www.w3.org/1999/xlink" x="0px" y="0px"
	 viewBox="0 0 1080 1080" style="enable-background:new 0 0 1080 1080;" xml:space="preserve">
<style type="text/css">
	.st0{fill:#7F8FA4;}
</style>
<path id="wallet" class="st0" d="M941.33,271.05h-717.2c-38.24-0.08-74.64-16.37-100.18-44.82c25.5-28.51,61.93-44.81,100.18-44.83
	h806.85c24.76,0,44.83-20.07,44.83-44.82s-20.07-44.82-44.83-44.82H224.12C100.34,91.75,0,192.09,0,315.88v448.25
	c0,123.78,100.34,224.12,224.12,224.12h717.2c74.27,0,134.48-60.21,134.48-134.47V405.52
	C1075.8,331.26,1015.59,271.05,941.33,271.05z M896.5,674.47c-24.76,0-44.83-20.07-44.83-44.82c0-24.76,20.07-44.83,44.83-44.83
	s44.83,20.07,44.83,44.83C941.33,654.41,921.26,674.47,896.5,674.47z"/>
</svg>
