<svg xmlns="http://www.w3.org/2000/svg" width="46.779" height="46.728" viewBox="0 0 46.779 46.728">
  <path id="Path_35821" data-name="Path 35821" d="M24.363,47.778A20.629,20.629,0,0,1,13.521,44.6a31.164,31.164,0,0,1-8.45-7.253v6.515H1.05V30.115H14.793v4.021H7.82A25.411,25.411,0,0,0,15,40.728a17.167,17.167,0,0,0,9.366,2.978,18.166,18.166,0,0,0,7.355-1.5,20.514,20.514,0,0,0,6.057-4.021,20.138,20.138,0,0,0,4.25-5.955,17.832,17.832,0,0,0,1.68-7.508h4.072a22.532,22.532,0,0,1-1.934,9.086,23.467,23.467,0,0,1-5.116,7.33A23.757,23.757,0,0,1,33.3,46.022,22.919,22.919,0,0,1,24.363,47.778ZM1.05,24.109A22.149,22.149,0,0,1,2.882,15.2,23.315,23.315,0,0,1,7.871,7.845,23.683,23.683,0,0,1,15.3,2.882,22.885,22.885,0,0,1,24.414,1.05,20.971,20.971,0,0,1,35.358,4.231a29.449,29.449,0,0,1,8.4,7.253V4.919h4.072V18.662H34.086V14.641h6.974A25.633,25.633,0,0,0,33.627,8a17.545,17.545,0,0,0-9.213-2.876,18.343,18.343,0,0,0-7.381,1.5,20.421,20.421,0,0,0-6.083,4.021A19.763,19.763,0,0,0,6.726,16.6a18.078,18.078,0,0,0-1.654,7.508Z" transform="translate(-1.05 -1.05)"/>
</svg>
