<svg xmlns="http://www.w3.org/2000/svg" width="24.134" height="25.752" viewBox="0 0 24.134 25.752">
  <path id="Path_35816" data-name="Path 35816" d="M1888.12,978.552a4.594,4.594,0,0,1-2.186-.942,4.364,4.364,0,0,1-1.608-4.586.344.344,0,0,0-.215-.463q-2.931-1.489-5.852-2.995c-.231-.118-.466-.229-.688-.362a.257.257,0,0,0-.4.081,4.325,4.325,0,0,1-2.277,1.523,4.544,4.544,0,1,1-2.15-8.826,4.345,4.345,0,0,1,4.1,1.233.317.317,0,0,0,.466.06q3.465-2.1,6.942-4.186c.172-.1.225-.188.157-.395a4.535,4.535,0,0,1,3.543-5.854c.057-.01.113-.027.17-.04h1.2a.681.681,0,0,0,.095.031,4.549,4.549,0,0,1,2.844,7.343,4.5,4.5,0,0,1-6.733.35.35.35,0,0,0-.539-.067q-3.432,2.086-6.877,4.15a.279.279,0,0,0-.148.4,3.9,3.9,0,0,1,.121,2.323.388.388,0,0,0,.251.526q3.254,1.656,6.5,3.333a.3.3,0,0,0,.442-.085,4.4,4.4,0,0,1,4.145-1.57,4.55,4.55,0,0,1,2.134,8.051,4.975,4.975,0,0,1-2.23.968Z" transform="translate(-1869.13 -952.8)" fill="#fff"/>
</svg>
