<?xml version="1.0" encoding="utf-8"?>
<!-- Generator: Adobe Illustrator 26.5.0, SVG Export Plug-In . SVG Version: 6.00 Build 0)  -->
<svg version="1.1" id="Layer_1" xmlns="http://www.w3.org/2000/svg" xmlns:xlink="http://www.w3.org/1999/xlink" x="0px" y="0px"
	 viewBox="0 0 1080 1080" style="enable-background:new 0 0 1080 1080;" xml:space="preserve">
<style type="text/css">
	.st0{fill-rule:evenodd;clip-rule:evenodd;fill:#7F8FA4;}
</style>
<g id="Setting" transform="translate(-6.612 -4.429)">
	<g id="Group_40" transform="translate(0 0)">
		<path id="Path_348" class="st0" d="M439.02,974.16c-1.57,59.31,45.23,108.66,104.54,110.24s108.66-45.23,110.24-104.54
			c0.05-1.9,0.05-3.79,0-5.69v-69.22c24.81-7.42,48.8-17.36,71.59-29.65l48.98,48.98c42,42,110.08,42,152.08,0
			c42-42,42-110.08,0-152.08l-48.98-48.98c12.3-22.79,22.22-46.78,29.62-71.59h69.26c59.31-1.57,106.12-50.93,104.54-110.23
			c-1.51-57.1-47.44-103.03-104.54-104.54h-69.22c-7.38-24.83-17.32-48.82-29.65-71.59l48.98-48.98
			c40.31-43.57,37.66-111.56-5.9-151.86c-41.27-38.19-105.01-38.1-146.18,0.2l-48.98,49.02c-22.77-12.33-46.77-22.25-71.59-29.62
			V114.7C655.37,55.39,608.56,6.04,549.25,4.47C489.94,2.9,440.59,49.7,439.02,109.01c-0.05,1.9-0.05,3.79,0,5.69v69.22
			c-24.81,7.42-48.8,17.36-71.59,29.65l-48.98-48.98c-41.94-41.96-109.96-41.98-151.93-0.04s-41.98,109.96-0.04,151.93l0,0
			l48.98,48.98c-12.33,22.77-22.25,46.77-29.62,71.59h-68.96c-59.31,1.57-106.12,50.93-104.54,110.24
			c1.51,57.1,47.44,103.03,104.54,104.54h69.22c7.45,24.74,17.4,48.65,29.69,71.37l-48.98,48.98
			c-41.42,42.51-40.54,110.54,1.96,151.97c41.73,40.67,108.27,40.67,150,0l48.98-48.98c22.79,12.3,46.78,22.22,71.59,29.62
			L439.02,974.16z M546.44,705.57c89.01,0,161.16-72.15,161.16-161.16c0-89.01-72.15-161.16-161.16-161.16
			c-89.01,0-161.16,72.15-161.16,161.16S457.44,705.57,546.44,705.57L546.44,705.57z"/>
	</g>
</g>
</svg>
